<?xml version="1.0" encoding="UTF-8" standalone="no"?>
<!DOCTYPE svg PUBLIC "-//W3C//DTD SVG 1.1//EN" "http://www.w3.org/Graphics/SVG/1.1/DTD/svg11.dtd">
<svg width="100%" height="100%" viewBox="0 0 960 960" version="1.1" xmlns="http://www.w3.org/2000/svg">
    <defs>
        <linearGradient id="debyGradient" x1="0%" y1="0%" x2="100%" y2="100%">
            <stop offset="0%" style="stop-color:#A80030;stop-opacity:1" />
            <stop offset="100%" style="stop-color:#D70751;stop-opacity:1" />
        </linearGradient>
    </defs>
    <!-- Round background -->
    <g transform="matrix(1.07993,0,0,1.07993,-76.6057,-32.2424)">
        <circle cx="515.545" cy="474.371" r="442.821" style="fill:url(#debyGradient);"/>
    </g>
    <!-- Stylized D -->
    <g transform="matrix(1.15,0,0,1.15,-72,-72)">
        <path d="M300,200L300,760L480,760C620,760 720,660 720,480C720,300 620,200 480,200L300,200ZM380,280L480,280C570,280 640,350 640,480C640,610 570,680 480,680L380,680L380,280Z" style="fill:white;fill-rule:nonzero;"/>
    </g>
</svg>
